%
M48
M72
T01C0.0315
T02C0.0320
T03C0.0335
T04C0.0350
T05C0.0354
T06C0.0394
T07C0.0400
T08C0.0440
T09C0.0472
T10C0.0512
T11C0.0520
T12C0.0550
T13C0.0590
T14C0.0866
%
T01
X7300Y29650
X11300Y29650
X11300Y32650
X12650Y32650
X14150Y32650
X15250Y32650
X17750Y32650
X19250Y32650
X20750Y32650
X23250Y32650
X24350Y32650
X25950Y32650
X27250Y32650
X29350Y32650
X31300Y32650
X29350Y35650
X25950Y35650
X24350Y35650
X20750Y35650
X17750Y35650
X14150Y35650
X12650Y35650
X8750Y35650
X8750Y32650
X7300Y32650
X15250Y29650
X19250Y29650
X23250Y29650
X27250Y29650
X31300Y29650
X35300Y29650
X35300Y32650
X38050Y32650
X39650Y32650
X41250Y32650
X42850Y32650
X44450Y32650
X46050Y32650
X47650Y32650
X49250Y32650
X49250Y35650
X47650Y35650
X46050Y35650
X44450Y35650
X42850Y35650
X41250Y35650
X39650Y35650
X38050Y35650
X47550Y44189
X48550Y44189
X49550Y44189
X50550Y44189
X51550Y44189
X52550Y44189
X52550Y49111
X51550Y49111
X50550Y49111
X49550Y49111
X48550Y49111
X47550Y49111
X47350Y51950
X46150Y51950
X44950Y51950
X44950Y54950
X46150Y54950
X47350Y54950
X48750Y54950
X48750Y51950
X53550Y50950
X54850Y50950
X56150Y50950
X57350Y50950
X58650Y50950
X59950Y50950
X61250Y50950
X61250Y53950
X59950Y53950
X58650Y53950
X57350Y53950
X56150Y53950
X54850Y53950
X53550Y53950
X74050Y39650
X74050Y36650
X78850Y31150
X78850Y28150
X78850Y26950
X80050Y26950
X80050Y23950
X78850Y23950
X80450Y19686
X80450Y18950
X80450Y18214
X81350Y7950
X81350Y6550
X78350Y6550
X78350Y7950
X83550Y7950
X83550Y6550
X86550Y6550
X86550Y7950
X87550Y43350
X87550Y44350
X84550Y44350
X84550Y43350
X76950Y65950
X75550Y65950
X75550Y68950
X76950Y68950
X73650Y76350
X71950Y76350
X70250Y76350
X70250Y79350
X71950Y79350
X73650Y79350
X48650Y79350
X46950Y79350
X45250Y79350
X45250Y76350
X46950Y76350
X48650Y76350
X28200Y76350
X26500Y76350
X24750Y76350
X24750Y79350
X26500Y79350
X28200Y79350
X8050Y49150
X6450Y49150
X4750Y49150
X4750Y46150
X6450Y46150
X8050Y46150
T02
X10450Y46150
X11450Y46150
X12450Y46150
X13450Y46150
X13450Y49150
X12450Y49150
X11450Y49150
X10450Y49150
X10450Y50550
X12450Y50550
X8750Y51850
X6750Y51850
X10150Y42450
X6350Y39250
X5350Y39250
X4350Y39250
X4350Y36250
X5350Y36250
X6350Y36250
X8750Y37250
X8750Y38250
X11750Y38250
X11750Y37250
X14750Y37250
X14750Y38250
X17750Y38250
X17750Y37250
X20750Y37250
X20750Y38250
X23750Y38250
X23750Y37250
X26750Y37250
X26750Y38250
X29750Y38250
X29750Y37250
X32050Y33850
X36550Y33850
X40150Y29450
X41150Y29450
X42150Y29450
X43150Y29450
X44150Y29450
X45150Y29450
X46150Y29450
X47150Y29450
X50050Y28650
X51950Y28650
X51950Y32250
X52950Y32250
X53950Y32250
X54950Y32250
X55950Y32250
X56950Y32250
X57950Y32250
X58950Y32250
X59950Y32250
X59950Y35250
X58950Y35250
X57950Y35250
X56950Y35250
X55950Y35250
X54950Y35250
X53950Y35250
X52950Y35250
X51950Y35250
X51100Y39450
X50350Y41250
X51100Y41750
X50350Y42250
X48100Y41750
X47350Y42250
X47350Y41250
X48100Y40150
X45100Y41750
X44350Y41250
X44350Y42250
X43850Y40150
X43200Y39450
X34750Y46150
X33750Y46150
X32750Y46150
X31750Y46150
X30750Y46150
X29750Y46150
X28750Y46150
X27750Y46150
X26750Y46150
X26750Y49150
X27750Y49150
X28750Y49150
X29750Y49150
X30750Y49150
X31750Y49150
X32750Y49150
X33750Y49150
X34750Y49150
X43250Y46950
X49550Y48000
X56650Y46950
X57250Y48000
X53350Y42350
X54100Y41850
X53350Y41350
X65050Y36350
X67450Y36350
X68050Y35350
X69050Y35350
X70050Y35350
X71050Y35350
X72050Y35350
X73050Y35350
X74050Y35350
X75050Y35350
X76050Y35350
X77050Y35350
X78050Y35350
X79050Y35350
X80050Y34850
X79850Y32350
X79050Y32350
X78050Y32350
X77050Y32350
X76050Y32350
X75050Y32350
X74050Y32350
X73050Y32350
X72050Y32350
X71050Y32350
X70050Y32350
X69050Y32350
X68050Y32350
X70050Y33350
X72050Y34150
X73050Y31150
X75850Y36550
X76550Y37050
X77550Y38350
X76550Y40550
X75350Y40650
X74750Y41250
X75050Y43750
X77050Y44950
X79050Y44300
X81450Y43550
X83450Y43550
X83650Y44450
X82450Y45750
X82450Y46750
X82450Y47750
X82450Y48750
X82450Y49750
X82450Y50750
X82450Y51750
X85450Y51750
X85450Y50750
X85450Y49750
X85450Y48750
X85450Y47750
X84250Y47750
X85450Y46750
X85450Y45750
X87850Y45250
X87450Y41850
X87450Y40850
X87450Y39850
X87350Y38350
X86750Y36350
X85450Y36350
X84450Y36350
X83450Y36350
X82450Y36350
X83200Y38350
X84950Y37650
X84450Y39850
X84450Y40850
X84450Y41850
X81150Y38350
X84150Y34850
X84450Y33350
X83450Y33350
X82450Y33350
X82450Y31750
X84450Y31750
X86050Y32350
X85450Y33350
X86750Y31350
X88150Y30550
X88650Y28750
X88350Y27450
X86750Y28750
X85650Y29450
X84650Y29450
X83650Y29450
X82650Y29450
X81350Y27450
X82650Y26450
X83650Y26450
X84650Y26450
X85650Y26450
X83650Y24650
X82650Y24650
X81650Y25450
X77550Y24450
X77550Y26450
X71450Y21150
X71450Y19150
X77150Y19950
X78650Y19950
X78650Y17950
X77150Y17950
X81650Y17950
X83350Y17950
X83350Y19950
X81650Y19650
X81650Y20550
X89250Y24650
X91750Y15950
X91750Y10450
X65950Y16250
X65250Y17150
X64950Y18550
X59950Y18550
X58850Y18350
X58350Y17150
X57850Y16250
X56850Y18350
X54950Y12450
X54950Y11450
X58550Y10150
X61850Y11450
X51450Y10150
X50350Y12450
X50050Y18650
X47150Y26450
X46150Y26450
X45150Y26450
X44150Y26450
X43150Y26450
X42150Y26450
X41150Y26450
X40150Y26450
X61350Y26450
X61350Y25550
X64450Y25550
X65350Y26450
X66350Y28650
X66350Y31150
X66050Y33350
X65350Y34150
X70950Y37750
X70950Y38750
X70050Y40250
X71050Y41250
X72850Y39150
X72850Y37150
X74750Y37650
X67550Y40250
X67550Y41250
X67450Y43650
X67550Y44950
X72050Y44300
X74350Y53450
X73850Y56450
X73850Y57350
X78550Y55550
X78550Y54550
X79650Y53450
X80550Y54150
X80550Y56150
X81950Y56650
X81950Y57650
X80550Y57650
X80550Y59650
X78450Y64350
X78450Y68950
X74250Y68950
X72250Y68950
X79350Y74850
X77250Y76350
X76250Y76350
X75250Y76350
X75250Y79350
X76250Y79350
X77250Y79350
X56850Y74850
X55750Y74850
X52250Y76350
X51250Y76350
X50250Y76350
X50250Y79350
X51250Y79350
X52250Y79350
X49250Y68950
X47250Y68950
X46050Y68850
X54650Y60250
X54250Y58950
X53250Y58950
X55250Y58950
X56250Y58950
X57250Y58950
X58250Y58950
X59250Y58950
X60250Y58950
X61450Y58450
X61250Y57350
X61450Y56450
X60250Y55950
X59250Y55950
X58250Y55950
X57250Y55950
X56250Y55950
X55250Y55950
X54250Y55950
X53250Y55950
X61550Y60250
X83650Y55050
X84250Y53850
X87850Y55050
X90350Y56750
X90350Y51550
X89250Y35750
X88150Y34950
X89150Y34150
X34550Y74850
X31750Y76350
X30750Y76350
X29750Y76350
X29750Y79350
X30750Y79350
X31750Y79350
X30750Y68850
X28750Y69050
X26750Y69050
X15950Y77450
X14950Y77450
X16250Y79350
X18250Y79350
X8850Y75750
X8850Y72150
X23850Y57550
X24850Y57550
X24850Y50850
X23850Y50850
X22050Y50650
X22050Y49050
X21050Y49050
X20050Y49050
X20050Y50650
X18100Y50650
X18100Y49650
X20050Y46050
X21050Y46050
X22050Y46050
X23050Y46050
X23050Y49050
X10150Y32650
T03
X4150Y24850
X4150Y23850
X4150Y22850
X4150Y21850
X4150Y20850
X4150Y19850
X4150Y18850
X4150Y17850
X19450Y44350
X21450Y44350
X21750Y62350
X20750Y62350
X19750Y62350
X18750Y62350
X17750Y62350
X16750Y62350
X15750Y62350
X14750Y62350
X13750Y62350
X12750Y62350
X11750Y62350
X10750Y62350
X10750Y65750
X11750Y65750
X12750Y65750
X13750Y65750
X14750Y65750
X15750Y65750
X16750Y65750
X17750Y65750
X18750Y65750
X19750Y65750
X20750Y65750
X21750Y65750
X22750Y65750
X23750Y65750
X24750Y65750
X25750Y65750
X27750Y65750
X28750Y65750
X29750Y65750
X30750Y65750
X31750Y65750
X32750Y65750
X33750Y65750
X34750Y65750
X37050Y65750
X38050Y65750
X39050Y65750
X40050Y65750
X41050Y65750
X42050Y65750
X43050Y65750
X44050Y65750
X43850Y62350
X42850Y62350
X41850Y62350
X40850Y62350
X39850Y62350
X38850Y62350
X37850Y62350
X36850Y62350
X34750Y62350
X33750Y62350
X32750Y62350
X31750Y62350
X30750Y62350
X29750Y62350
X28750Y62350
X27750Y62350
X25750Y62350
X24750Y62350
X23750Y62350
X22750Y62350
X22750Y70450
X21750Y70450
X20750Y70450
X19750Y70450
X18750Y70450
X18750Y73450
X19750Y73450
X20750Y73450
X21750Y73450
X22750Y73450
X23750Y73450
X24750Y73450
X25750Y73450
X26750Y73450
X27750Y73450
X28750Y73450
X29750Y73450
X30750Y73450
X31750Y73450
X31750Y70450
X30750Y70450
X29750Y70450
X28750Y70450
X27750Y70450
X26750Y70450
X25750Y70450
X24750Y70450
X23750Y70450
X14850Y79350
X13850Y79350
X12850Y79350
X11850Y79350
X10850Y79350
X9850Y79350
X8850Y79350
X7850Y79350
X6850Y79350
X5850Y79350
X4050Y75050
X4050Y74050
X4050Y73050
X4050Y72050
X4050Y71050
X4050Y70050
X4050Y69050
X4050Y68050
X39250Y70450
X40250Y70450
X41250Y70450
X42250Y70450
X43250Y70450
X44250Y70450
X45250Y70450
X46250Y70450
X47250Y70450
X48250Y70450
X49250Y70450
X50250Y70450
X51250Y70450
X52250Y70450
X52250Y73450
X51250Y73450
X50250Y73450
X49250Y73450
X48250Y73450
X47250Y73450
X46250Y73450
X45250Y73450
X44250Y73450
X43250Y73450
X42250Y73450
X41250Y73450
X40250Y73450
X39250Y73450
X46050Y62350
X47050Y62350
X48050Y62350
X49050Y62350
X50050Y62350
X51050Y62350
X52050Y62350
X53050Y62350
X55250Y62350
X56250Y62350
X57250Y62350
X58250Y62350
X59250Y62350
X60250Y62350
X61250Y62350
X62250Y62350
X64250Y62350
X65250Y62350
X66250Y62350
X67250Y62350
X68250Y62350
X69250Y62350
X70250Y62350
X71250Y62350
X72650Y62350
X73650Y62350
X74650Y62350
X75650Y62350
X76650Y62350
X77650Y62350
X78650Y62350
X79650Y62350
X71250Y65750
X70250Y65750
X69250Y65750
X68250Y65750
X67250Y65750
X66250Y65750
X65250Y65750
X64250Y65750
X62250Y65750
X61250Y65750
X60250Y65750
X59250Y65750
X58250Y65750
X57250Y65750
X56250Y65750
X55250Y65750
X64250Y70450
X65250Y70450
X66250Y70450
X67250Y70450
X68250Y70450
X69250Y70450
X70250Y70450
X71250Y70450
X72250Y70450
X73250Y70450
X74250Y70450
X75250Y70450
X76250Y70450
X77250Y70450
X77250Y73450
X76250Y73450
X75250Y73450
X74250Y73450
X73250Y73450
X72250Y73450
X71250Y73450
X70250Y73450
X69250Y73450
X68250Y73450
X67250Y73450
X66250Y73450
X65250Y73450
X64250Y73450
X90350Y40250
X90350Y39250
X90350Y38250
X90350Y37250
X90350Y36250
X90350Y35250
X90350Y34250
X90350Y33250
X90450Y31550
X90450Y30550
X90450Y29550
X90450Y28550
X90450Y27550
X90450Y26550
X90450Y25550
X90450Y24550
X90450Y22950
X90450Y21950
X90450Y20950
X90450Y19950
X90450Y18950
X90450Y17950
X90450Y16950
X90450Y15950
X90450Y14450
X90450Y13450
X90450Y12450
X90450Y11450
X90450Y10450
X90450Y9450
X90450Y8450
X90450Y7450
X73250Y19150
X73250Y20150
X73250Y21150
X73250Y22150
X73250Y23150
X73250Y24150
T04
X72750Y16250
X71750Y16250
X73750Y16250
X68750Y13250
X68750Y12250
X68750Y11250
T05
X75750Y11000
X77750Y11000
X77750Y13500
X75750Y13500
X74434Y28150
X72466Y28150
X89243Y61511
X89243Y62850
X89243Y64189
X90778Y63519
X90778Y62181
T06
X77050Y52174
X76050Y52174
X75050Y52174
X74050Y52174
X73050Y52174
X72050Y52174
X71050Y52174
X70050Y52174
X70050Y42726
X71050Y42726
X72050Y42726
X73050Y42726
X74050Y42726
X75050Y42726
X76050Y42726
X77050Y42726
X82194Y13334
X82194Y11366
X87903Y11366
X87903Y12350
X87903Y13334
X22752Y53752
X21752Y53752
X20752Y53752
X19752Y53752
X18752Y53752
X17752Y53752
X16752Y53752
X15752Y53752
X14752Y53752
X13752Y53752
X12752Y53752
X11752Y53752
X10752Y53752
X9752Y53752
X8752Y53752
X7752Y53752
T07
X6250Y56750
X8250Y57750
X6250Y58750
X6140Y29230
X4360Y29230
X4360Y26670
X6140Y26670
X6150Y24850
X8150Y24850
X9650Y24850
X10140Y26670
X8360Y26670
X8360Y29230
X10140Y29230
X12360Y29230
X14140Y29230
X16360Y29230
X18140Y29230
X20360Y29230
X22140Y29230
X24360Y29230
X26140Y29230
X28360Y29230
X30140Y29230
X32360Y29230
X34140Y29230
X34140Y26670
X32360Y26670
X32650Y24850
X30650Y24850
X29150Y24850
X28360Y26670
X30140Y26670
X27150Y24850
X25650Y24850
X26140Y26670
X24360Y26670
X23650Y24850
X22150Y24850
X22140Y26670
X20360Y26670
X20150Y24850
X18650Y24850
X18140Y26670
X16360Y26670
X16650Y24850
X15150Y24850
X13150Y24850
X11650Y24850
X12360Y26670
X14140Y26670
X14150Y22850
X10650Y22850
X7150Y22850
X17650Y22850
X21150Y22850
X24650Y22850
X28150Y22850
X31650Y22850
X85450Y19950
X85450Y18950
X85450Y17950
X88450Y58350
X90450Y58350
X90550Y67350
X88550Y67350
T08
X87150Y62150
X82150Y62150
T09
X61450Y21950
X60450Y21950
X59450Y21950
X58450Y21950
X57450Y21950
X56450Y21950
X55450Y21950
X54950Y19950
X55950Y19950
X56950Y19950
X57950Y19950
X58950Y19950
X59950Y19950
X60950Y19950
X61950Y19950
T10
X9360Y5160
X11329Y5160
X13297Y5160
X15266Y5160
X17234Y5160
X19203Y5160
X21171Y5160
X23140Y5160
X31260Y5160
X33229Y5160
X35197Y5160
X37166Y5160
X39134Y5160
X41103Y5160
X43071Y5160
X45040Y5160
X50360Y5160
X52329Y5160
X54297Y5160
X56266Y5160
X58234Y5160
X60203Y5160
X62171Y5160
X64140Y5160
X89050Y74080
X89050Y74380
X89050Y74680
X89930Y76350
X90230Y76350
X90530Y76350
X91410Y74680
X91410Y74380
X91410Y74080
T11
X48050Y17750
X45100Y17750
X42550Y17750
X39600Y17750
X37050Y17750
X34100Y17750
X31550Y17750
X28600Y17750
X26050Y17750
X23100Y17750
X20550Y17750
X17600Y17750
X15050Y17750
X12100Y17750
X9550Y17750
X6600Y17750
X9550Y9880
X12100Y8500
X15050Y9880
X17600Y8500
X20550Y9880
X23100Y8500
X26050Y9880
X28600Y8500
X31550Y9880
X34100Y8500
X37050Y9880
X39600Y8500
X42550Y9880
X45100Y8500
X48050Y9880
X6600Y8500
T12
X70125Y9250
X75375Y9250
X75375Y15250
X70125Y15250
T13
X66450Y14250
X64150Y14250
X61850Y14250
X59550Y14250
X57250Y14250
X54950Y14250
X52650Y14250
X50350Y14250
X50350Y8250
X52650Y8250
X54950Y8250
X57250Y8250
X59550Y8250
X61850Y8250
X64150Y8250
X66450Y8250
X82150Y68350
X86150Y68350
X86150Y74350
X82150Y74350
T14
X84950Y14752
X84950Y9948
M30
