G75*
%MOIN*%
%OFA0B0*%
%FSLAX24Y24*%
%IPPOS*%
%LPD*%
%AMOC8*
5,1,8,0,0,1.08239X$1,22.5*
%
%ADD10C,0.0100*%
%ADD11C,0.0000*%
%ADD12C,0.0050*%
%ADD13C,0.0080*%
%ADD14C,0.0040*%
D10*
X002450Y003050D02*
X002450Y081790D01*
X093001Y081790D01*
X093001Y003050D01*
X002450Y003050D01*
D11*
X005094Y041548D02*
X005096Y041592D01*
X005102Y041636D01*
X005112Y041679D01*
X005125Y041721D01*
X005143Y041761D01*
X005164Y041800D01*
X005188Y041837D01*
X005215Y041872D01*
X005246Y041904D01*
X005279Y041933D01*
X005315Y041959D01*
X005353Y041981D01*
X005393Y042000D01*
X005434Y042016D01*
X005477Y042028D01*
X005520Y042036D01*
X005564Y042040D01*
X005608Y042040D01*
X005652Y042036D01*
X005695Y042028D01*
X005738Y042016D01*
X005779Y042000D01*
X005819Y041981D01*
X005857Y041959D01*
X005893Y041933D01*
X005926Y041904D01*
X005957Y041872D01*
X005984Y041837D01*
X006008Y041800D01*
X006029Y041761D01*
X006047Y041721D01*
X006060Y041679D01*
X006070Y041636D01*
X006076Y041592D01*
X006078Y041548D01*
X006076Y041504D01*
X006070Y041460D01*
X006060Y041417D01*
X006047Y041375D01*
X006029Y041335D01*
X006008Y041296D01*
X005984Y041259D01*
X005957Y041224D01*
X005926Y041192D01*
X005893Y041163D01*
X005857Y041137D01*
X005819Y041115D01*
X005779Y041096D01*
X005738Y041080D01*
X005695Y041068D01*
X005652Y041060D01*
X005608Y041056D01*
X005564Y041056D01*
X005520Y041060D01*
X005477Y041068D01*
X005434Y041080D01*
X005393Y041096D01*
X005353Y041115D01*
X005315Y041137D01*
X005279Y041163D01*
X005246Y041192D01*
X005215Y041224D01*
X005188Y041259D01*
X005164Y041296D01*
X005143Y041335D01*
X005125Y041375D01*
X005112Y041417D01*
X005102Y041460D01*
X005096Y041504D01*
X005094Y041548D01*
X005094Y053752D02*
X005096Y053796D01*
X005102Y053840D01*
X005112Y053883D01*
X005125Y053925D01*
X005143Y053965D01*
X005164Y054004D01*
X005188Y054041D01*
X005215Y054076D01*
X005246Y054108D01*
X005279Y054137D01*
X005315Y054163D01*
X005353Y054185D01*
X005393Y054204D01*
X005434Y054220D01*
X005477Y054232D01*
X005520Y054240D01*
X005564Y054244D01*
X005608Y054244D01*
X005652Y054240D01*
X005695Y054232D01*
X005738Y054220D01*
X005779Y054204D01*
X005819Y054185D01*
X005857Y054163D01*
X005893Y054137D01*
X005926Y054108D01*
X005957Y054076D01*
X005984Y054041D01*
X006008Y054004D01*
X006029Y053965D01*
X006047Y053925D01*
X006060Y053883D01*
X006070Y053840D01*
X006076Y053796D01*
X006078Y053752D01*
X006076Y053708D01*
X006070Y053664D01*
X006060Y053621D01*
X006047Y053579D01*
X006029Y053539D01*
X006008Y053500D01*
X005984Y053463D01*
X005957Y053428D01*
X005926Y053396D01*
X005893Y053367D01*
X005857Y053341D01*
X005819Y053319D01*
X005779Y053300D01*
X005738Y053284D01*
X005695Y053272D01*
X005652Y053264D01*
X005608Y053260D01*
X005564Y053260D01*
X005520Y053264D01*
X005477Y053272D01*
X005434Y053284D01*
X005393Y053300D01*
X005353Y053319D01*
X005315Y053341D01*
X005279Y053367D01*
X005246Y053396D01*
X005215Y053428D01*
X005188Y053463D01*
X005164Y053500D01*
X005143Y053539D01*
X005125Y053579D01*
X005112Y053621D01*
X005102Y053664D01*
X005096Y053708D01*
X005094Y053752D01*
X034622Y053752D02*
X034624Y053796D01*
X034630Y053840D01*
X034640Y053883D01*
X034653Y053925D01*
X034671Y053965D01*
X034692Y054004D01*
X034716Y054041D01*
X034743Y054076D01*
X034774Y054108D01*
X034807Y054137D01*
X034843Y054163D01*
X034881Y054185D01*
X034921Y054204D01*
X034962Y054220D01*
X035005Y054232D01*
X035048Y054240D01*
X035092Y054244D01*
X035136Y054244D01*
X035180Y054240D01*
X035223Y054232D01*
X035266Y054220D01*
X035307Y054204D01*
X035347Y054185D01*
X035385Y054163D01*
X035421Y054137D01*
X035454Y054108D01*
X035485Y054076D01*
X035512Y054041D01*
X035536Y054004D01*
X035557Y053965D01*
X035575Y053925D01*
X035588Y053883D01*
X035598Y053840D01*
X035604Y053796D01*
X035606Y053752D01*
X035604Y053708D01*
X035598Y053664D01*
X035588Y053621D01*
X035575Y053579D01*
X035557Y053539D01*
X035536Y053500D01*
X035512Y053463D01*
X035485Y053428D01*
X035454Y053396D01*
X035421Y053367D01*
X035385Y053341D01*
X035347Y053319D01*
X035307Y053300D01*
X035266Y053284D01*
X035223Y053272D01*
X035180Y053264D01*
X035136Y053260D01*
X035092Y053260D01*
X035048Y053264D01*
X035005Y053272D01*
X034962Y053284D01*
X034921Y053300D01*
X034881Y053319D01*
X034843Y053341D01*
X034807Y053367D01*
X034774Y053396D01*
X034743Y053428D01*
X034716Y053463D01*
X034692Y053500D01*
X034671Y053539D01*
X034653Y053579D01*
X034640Y053621D01*
X034630Y053664D01*
X034624Y053708D01*
X034622Y053752D01*
X034622Y041548D02*
X034624Y041592D01*
X034630Y041636D01*
X034640Y041679D01*
X034653Y041721D01*
X034671Y041761D01*
X034692Y041800D01*
X034716Y041837D01*
X034743Y041872D01*
X034774Y041904D01*
X034807Y041933D01*
X034843Y041959D01*
X034881Y041981D01*
X034921Y042000D01*
X034962Y042016D01*
X035005Y042028D01*
X035048Y042036D01*
X035092Y042040D01*
X035136Y042040D01*
X035180Y042036D01*
X035223Y042028D01*
X035266Y042016D01*
X035307Y042000D01*
X035347Y041981D01*
X035385Y041959D01*
X035421Y041933D01*
X035454Y041904D01*
X035485Y041872D01*
X035512Y041837D01*
X035536Y041800D01*
X035557Y041761D01*
X035575Y041721D01*
X035588Y041679D01*
X035598Y041636D01*
X035604Y041592D01*
X035606Y041548D01*
X035604Y041504D01*
X035598Y041460D01*
X035588Y041417D01*
X035575Y041375D01*
X035557Y041335D01*
X035536Y041296D01*
X035512Y041259D01*
X035485Y041224D01*
X035454Y041192D01*
X035421Y041163D01*
X035385Y041137D01*
X035347Y041115D01*
X035307Y041096D01*
X035266Y041080D01*
X035223Y041068D01*
X035180Y041060D01*
X035136Y041056D01*
X035092Y041056D01*
X035048Y041060D01*
X035005Y041068D01*
X034962Y041080D01*
X034921Y041096D01*
X034881Y041115D01*
X034843Y041137D01*
X034807Y041163D01*
X034774Y041192D01*
X034743Y041224D01*
X034716Y041259D01*
X034692Y041296D01*
X034671Y041335D01*
X034653Y041375D01*
X034640Y041417D01*
X034630Y041460D01*
X034624Y041504D01*
X034622Y041548D01*
D12*
X081505Y041659D02*
X081505Y040202D01*
X083434Y040202D01*
X083434Y041659D01*
X081505Y041659D01*
X083048Y040556D02*
X083050Y040576D01*
X083055Y040596D01*
X083065Y040614D01*
X083077Y040631D01*
X083092Y040645D01*
X083110Y040655D01*
X083129Y040663D01*
X083149Y040667D01*
X083169Y040667D01*
X083189Y040663D01*
X083208Y040655D01*
X083226Y040645D01*
X083241Y040631D01*
X083253Y040614D01*
X083263Y040596D01*
X083268Y040576D01*
X083270Y040556D01*
X083268Y040536D01*
X083263Y040516D01*
X083253Y040498D01*
X083241Y040481D01*
X083226Y040467D01*
X083208Y040457D01*
X083189Y040449D01*
X083169Y040445D01*
X083149Y040445D01*
X083129Y040449D01*
X083110Y040457D01*
X083092Y040467D01*
X083077Y040481D01*
X083065Y040498D01*
X083055Y040516D01*
X083050Y040536D01*
X083048Y040556D01*
X083650Y040836D02*
X084250Y040836D01*
X084175Y040911D02*
X084100Y040986D01*
X084175Y040911D02*
X084175Y040760D01*
X084100Y040685D01*
X084025Y040685D01*
X083950Y040760D01*
X083950Y040911D01*
X083875Y040986D01*
X083800Y040986D01*
X083725Y040911D01*
X083725Y040760D01*
X083800Y040685D01*
X083800Y040525D02*
X084175Y040525D01*
X084175Y040225D02*
X083800Y040225D01*
X083725Y040300D01*
X083725Y040450D01*
X083800Y040525D01*
X083800Y041146D02*
X083875Y041146D01*
X083950Y041221D01*
X083950Y041371D01*
X083875Y041446D01*
X083800Y041446D01*
X083725Y041371D01*
X083725Y041221D01*
X083800Y041146D01*
X083950Y041221D02*
X084025Y041146D01*
X084100Y041146D01*
X084175Y041221D01*
X084175Y041371D01*
X084100Y041446D01*
X084025Y041446D01*
X083950Y041371D01*
D13*
X078050Y056360D02*
X076650Y056360D01*
X076650Y058940D01*
X078050Y058940D01*
X078050Y056360D01*
D14*
X075400Y057222D02*
X075400Y057375D01*
X075400Y057299D02*
X074940Y057299D01*
X074940Y057375D02*
X074940Y057222D01*
X075017Y057529D02*
X074940Y057606D01*
X074940Y057759D01*
X075017Y057836D01*
X074940Y057989D02*
X074940Y058296D01*
X074940Y058143D02*
X075400Y058143D01*
X075247Y057989D01*
X075324Y057836D02*
X075400Y057759D01*
X075400Y057606D01*
X075324Y057529D01*
X075017Y057529D01*
X074940Y058450D02*
X074940Y058757D01*
X074940Y058603D02*
X075400Y058603D01*
X075247Y058450D01*
M02*
