M48
INCH,TZ
VER,1
FMAT,2
T01C0.0315F100B1000S6H2000
T02C0.032F100B1000S6H2000
T03C0.0335F100B1000S6H2000
T04C0.035F100B1000S6H2000
T05C0.0354F100B1000S6H2000
T06C0.0394F100B1000S6H2000
T07C0.04F100B1000S6H2000
T08C0.044F100B1000S6H2000
T09C0.0472F100B1000S6H2000
T10C0.0512F100B1000S6H2000
T11C0.052F100B1000S6H2000
T12C0.055F100B1000S6H2000
T13C0.059F100B1000S6H2000
T14C0.0866F100B1000S6H2000
DETECT,ON
ATC,ON
%
T01
X7300Y29650
X11300
Y32650
X12650
X14150
X15250
X17750
X19250
X20750
X23250
X24350
X25950
X27250
X29350
X31300
X29350Y35650
X25950
X24350
X20750
X17750
X14150
X12650
X8750
Y32650
X7300
X15250Y29650
X19250
X23250
X27250
X31300
X35300
Y32650
X38050
X39650
X41250
X42850
X44450
X46050
X47650
X49250
Y35650
X47650
X46050
X44450
X42850
X41250
X39650
X38050
X47550Y44189
X48550
X49550
X50550
X51550
X52550
Y49111
X51550
X50550
X49550
X48550
X47550
X47350Y51950
X46150
X44950
Y54950
X46150
X47350
X48750
Y51950
X53550Y50950
X54850
X56150
X57350
X58650
X59950
X61250
Y53950
X59950
X58650
X57350
X56150
X54850
X53550
X74050Y39650
Y36650
X78850Y31150
Y28150
Y26950
X80050
Y23950
X78850
X80450Y19686
Y18950
Y18214
X81350Y7950
Y6550
X78350
Y7950
X83550
Y6550
X86550
Y7950
X87550Y43350
Y44350
X84550
Y43350
X76950Y65950
X75550
Y68950
X76950
X73650Y76350
X71950
X70250
Y79350
X71950
X73650
X48650
X46950
X45250
Y76350
X46950
X48650
X28200
X26500
X24750
Y79350
X26500
X28200
X8050Y49150
X6450
X4750
Y46150
X6450
X8050
T02
X10450Y46150
X11450
X12450
X13450
Y49150
X12450
X11450
X10450
Y50550
X12450
X8750Y51850
X6750
X10150Y42450
X6350Y39250
X5350
X4350
Y36250
X5350
X6350
X8750Y37250
Y38250
X11750
Y37250
X14750
Y38250
X17750
Y37250
X20750
Y38250
X23750
Y37250
X26750
Y38250
X29750
Y37250
X32050Y33850
X36550
X40150Y29450
X41150
X42150
X43150
X44150
X45150
X46150
X47150
X50050Y28650
X51950
Y32250
X52950
X53950
X54950
X55950
X56950
X57950
X58950
X59950
Y35250
X58950
X57950
X56950
X55950
X54950
X53950
X52950
X51950
X51100Y39450
X50350Y41250
X51100Y41750
X50350Y42250
X48100Y41750
X47350Y42250
Y41250
X48100Y40150
X45100Y41750
X44350Y41250
Y42250
X43850Y40150
X43200Y39450
X34750Y46150
X33750
X32750
X31750
X30750
X29750
X28750
X27750
X26750
Y49150
X27750
X28750
X29750
X30750
X31750
X32750
X33750
X34750
X43250Y46950
X49550Y48000
X56650Y46950
X57250Y48000
X53350Y42350
X54100Y41850
X53350Y41350
X65050Y36350
X67450
X68050Y35350
X69050
X70050
X71050
X72050
X73050
X74050
X75050
X76050
X77050
X78050
X79050
X80050Y34850
X79850Y32350
X79050
X78050
X77050
X76050
X75050
X74050
X73050
X72050
X71050
X70050
X69050
X68050
X70050Y33350
X72050Y34150
X73050Y31150
X75850Y36550
X76550Y37050
X77550Y38350
X76550Y40550
X75350Y40650
X74750Y41250
X75050Y43750
X77050Y44950
X79050Y44300
X81450Y43550
X83450
X83650Y44450
X82450Y45750
Y46750
Y47750
Y48750
Y49750
Y50750
Y51750
X85450
Y50750
Y49750
Y48750
Y47750
X84250
X85450Y46750
Y45750
X87850Y45250
X87450Y41850
Y40850
Y39850
X87350Y38350
X86750Y36350
X85450
X84450
X83450
X82450
X83200Y38350
X84950Y37650
X84450Y39850
Y40850
Y41850
X81150Y38350
X84150Y34850
X84450Y33350
X83450
X82450
Y31750
X84450
X86050Y32350
X85450Y33350
X86750Y31350
X88150Y30550
X88650Y28750
X88350Y27450
X86750Y28750
X85650Y29450
X84650
X83650
X82650
X81350Y27450
X82650Y26450
X83650
X84650
X85650
X83650Y24650
X82650
X81650Y25450
X77550Y24450
Y26450
X71450Y21150
Y19150
X77150Y19950
X78650
Y17950
X77150
X81650
X83350
Y19950
X81650Y19650
Y20550
X89250Y24650
X91750Y15950
Y10450
X65950Y16250
X65250Y17150
X64950Y18550
X59950
X58850Y18350
X58350Y17150
X57850Y16250
X56850Y18350
X54950Y12450
Y11450
X58550Y10150
X61850Y11450
X51450Y10150
X50350Y12450
X50050Y18650
X47150Y26450
X46150
X45150
X44150
X43150
X42150
X41150
X40150
X61350
Y25550
X64450
X65350Y26450
X66350Y28650
Y31150
X66050Y33350
X65350Y34150
X70950Y37750
Y38750
X70050Y40250
X71050Y41250
X72850Y39150
Y37150
X74750Y37650
X67550Y40250
Y41250
X67450Y43650
X67550Y44950
X72050Y44300
X74350Y53450
X73850Y56450
Y57350
X78550Y55550
Y54550
X79650Y53450
X80550Y54150
Y56150
X81950Y56650
Y57650
X80550
Y59650
X78450Y64350
Y68950
X74250
X72250
X79350Y74850
X77250Y76350
X76250
X75250
Y79350
X76250
X77250
X56850Y74850
X55750
X52250Y76350
X51250
X50250
Y79350
X51250
X52250
X49250Y68950
X47250
X46050Y68850
X54650Y60250
X54250Y58950
X53250
X55250
X56250
X57250
X58250
X59250
X60250
X61450Y58450
X61250Y57350
X61450Y56450
X60250Y55950
X59250
X58250
X57250
X56250
X55250
X54250
X53250
X61550Y60250
X83650Y55050
X84250Y53850
X87850Y55050
X90350Y56750
Y51550
X89250Y35750
X88150Y34950
X89150Y34150
X34550Y74850
X31750Y76350
X30750
X29750
Y79350
X30750
X31750
X30750Y68850
X28750Y69050
X26750
X15950Y77450
X14950
X16250Y79350
X18250
X8850Y75750
Y72150
X23850Y57550
X24850
Y50850
X23850
X22050Y50650
Y49050
X21050
X20050
Y50650
X18100
Y49650
X20050Y46050
X21050
X22050
X23050
Y49050
X10150Y32650
T03
X4150Y24850
Y23850
Y22850
Y21850
Y20850
Y19850
Y18850
Y17850
X19450Y44350
X21450
X21750Y62350
X20750
X19750
X18750
X17750
X16750
X15750
X14750
X13750
X12750
X11750
X10750
Y65750
X11750
X12750
X13750
X14750
X15750
X16750
X17750
X18750
X19750
X20750
X21750
X22750
X23750
X24750
X25750
X27750
X28750
X29750
X30750
X31750
X32750
X33750
X34750
X37050
X38050
X39050
X40050
X41050
X42050
X43050
X44050
X43850Y62350
X42850
X41850
X40850
X39850
X38850
X37850
X36850
X34750
X33750
X32750
X31750
X30750
X29750
X28750
X27750
X25750
X24750
X23750
X22750
Y70450
X21750
X20750
X19750
X18750
Y73450
X19750
X20750
X21750
X22750
X23750
X24750
X25750
X26750
X27750
X28750
X29750
X30750
X31750
Y70450
X30750
X29750
X28750
X27750
X26750
X25750
X24750
X23750
X14850Y79350
X13850
X12850
X11850
X10850
X9850
X8850
X7850
X6850
X5850
X4050Y75050
Y74050
Y73050
Y72050
Y71050
Y70050
Y69050
Y68050
X39250Y70450
X40250
X41250
X42250
X43250
X44250
X45250
X46250
X47250
X48250
X49250
X50250
X51250
X52250
Y73450
X51250
X50250
X49250
X48250
X47250
X46250
X45250
X44250
X43250
X42250
X41250
X40250
X39250
X46050Y62350
X47050
X48050
X49050
X50050
X51050
X52050
X53050
X55250
X56250
X57250
X58250
X59250
X60250
X61250
X62250
X64250
X65250
X66250
X67250
X68250
X69250
X70250
X71250
X72650
X73650
X74650
X75650
X76650
X77650
X78650
X79650
X71250Y65750
X70250
X69250
X68250
X67250
X66250
X65250
X64250
X62250
X61250
X60250
X59250
X58250
X57250
X56250
X55250
X64250Y70450
X65250
X66250
X67250
X68250
X69250
X70250
X71250
X72250
X73250
X74250
X75250
X76250
X77250
Y73450
X76250
X75250
X74250
X73250
X72250
X71250
X70250
X69250
X68250
X67250
X66250
X65250
X64250
X90350Y40250
Y39250
Y38250
Y37250
Y36250
Y35250
Y34250
Y33250
X90450Y31550
Y30550
Y29550
Y28550
Y27550
Y26550
Y25550
Y24550
Y22950
Y21950
Y20950
Y19950
Y18950
Y17950
Y16950
Y15950
Y14450
Y13450
Y12450
Y11450
Y10450
Y9450
Y8450
Y7450
X73250Y19150
Y20150
Y21150
Y22150
Y23150
Y24150
T04
X72750Y16250
X71750
X73750
X68750Y13250
Y12250
Y11250
T05
X75750Y11000
X77750
Y13500
X75750
X74434Y28150
X72466
X89243Y61511
Y62850
Y64189
X90778Y63519
Y62181
T06
X77050Y52174
X76050
X75050
X74050
X73050
X72050
X71050
X70050
Y42726
X71050
X72050
X73050
X74050
X75050
X76050
X77050
X82194Y13334
Y11366
X87903
Y12350
Y13334
X22752Y53752
X21752
X20752
X19752
X18752
X17752
X16752
X15752
X14752
X13752
X12752
X11752
X10752
X9752
X8752
X7752
T07
X6250Y56750
X8250Y57750
X6250Y58750
X6140Y29230
X4360
Y26670
X6140
X6150Y24850
X8150
X9650
X10140Y26670
X8360
Y29230
X10140
X12360
X14140
X16360
X18140
X20360
X22140
X24360
X26140
X28360
X30140
X32360
X34140
Y26670
X32360
X32650Y24850
X30650
X29150
X28360Y26670
X30140
X27150Y24850
X25650
X26140Y26670
X24360
X23650Y24850
X22150
X22140Y26670
X20360
X20150Y24850
X18650
X18140Y26670
X16360
X16650Y24850
X15150
X13150
X11650
X12360Y26670
X14140
X14150Y22850
X10650
X7150
X17650
X21150
X24650
X28150
X31650
X85450Y19950
Y18950
Y17950
X88450Y58350
X90450
X90550Y67350
X88550
T08
X87150Y62150
X82150
T09
X61450Y21950
X60450
X59450
X58450
X57450
X56450
X55450
X54950Y19950
X55950
X56950
X57950
X58950
X59950
X60950
X61950
T10
X9360Y5160
X11329
X13297
X15266
X17234
X19203
X21171
X23140
X31260
X33229
X35197
X37166
X39134
X41103
X43071
X45040
X50360
X52329
X54297
X56266
X58234
X60203
X62171
X64140
X89050Y74080
Y74380
Y74680
X89930Y76350
X90230
X90530
X91410Y74680
Y74380
Y74080
T11
X48050Y17750
X45100
X42550
X39600
X37050
X34100
X31550
X28600
X26050
X23100
X20550
X17600
X15050
X12100
X9550
X6600
X9550Y9880
X12100Y8500
X15050Y9880
X17600Y8500
X20550Y9880
X23100Y8500
X26050Y9880
X28600Y8500
X31550Y9880
X34100Y8500
X37050Y9880
X39600Y8500
X42550Y9880
X45100Y8500
X48050Y9880
X6600Y8500
T12
X70125Y9250
X75375
Y15250
X70125
T13
X66450Y14250
X64150
X61850
X59550
X57250
X54950
X52650
X50350
Y8250
X52650
X54950
X57250
X59550
X61850
X64150
X66450
X82150Y68350
X86150
Y74350
X82150
T14
X84950Y14752
Y9948
M30
